<mxfile host="app.diagrams.net" modified="2021-06-07T20:52:59.986Z" agent="5.0 (Macintosh; Intel Mac OS X 10_15_7) AppleWebKit/537.36 (KHTML, like Gecko) Chrome/91.0.4472.77 Safari/537.36" etag="dArgKRikEyy77c8D-x5K" version="14.7.6" type="github">
  <diagram id="HtIIU6jY8HshCiclCaws" name="Page-1">
    <mxGraphModel dx="2021" dy="769" grid="1" gridSize="10" guides="1" tooltips="1" connect="1" arrows="1" fold="1" page="1" pageScale="1" pageWidth="850" pageHeight="1100" math="0" shadow="0">
      <root>
        <mxCell id="0" />
        <mxCell id="1" parent="0" />
        <mxCell id="FBbRZ7DXnDDvQ61CtZ3k-1" value="" style="swimlane;startSize=0;" parent="1" vertex="1">
          <mxGeometry x="40" y="40" width="390" height="120" as="geometry" />
        </mxCell>
        <mxCell id="FBbRZ7DXnDDvQ61CtZ3k-4" style="edgeStyle=orthogonalEdgeStyle;rounded=0;orthogonalLoop=1;jettySize=auto;html=1;exitX=1;exitY=0.5;exitDx=0;exitDy=0;entryX=0;entryY=0.5;entryDx=0;entryDy=0;startArrow=classic;startFill=1;" parent="FBbRZ7DXnDDvQ61CtZ3k-1" source="FBbRZ7DXnDDvQ61CtZ3k-2" target="FBbRZ7DXnDDvQ61CtZ3k-3" edge="1">
          <mxGeometry relative="1" as="geometry" />
        </mxCell>
        <mxCell id="FBbRZ7DXnDDvQ61CtZ3k-2" value="nRF24" style="rounded=0;whiteSpace=wrap;html=1;" parent="FBbRZ7DXnDDvQ61CtZ3k-1" vertex="1">
          <mxGeometry x="25" y="20" width="60" height="60" as="geometry" />
        </mxCell>
        <mxCell id="FBbRZ7DXnDDvQ61CtZ3k-6" style="edgeStyle=orthogonalEdgeStyle;rounded=0;orthogonalLoop=1;jettySize=auto;html=1;exitX=1;exitY=0.5;exitDx=0;exitDy=0;entryX=0;entryY=0.5;entryDx=0;entryDy=0;startArrow=classic;startFill=1;" parent="FBbRZ7DXnDDvQ61CtZ3k-1" source="FBbRZ7DXnDDvQ61CtZ3k-3" target="FBbRZ7DXnDDvQ61CtZ3k-5" edge="1">
          <mxGeometry relative="1" as="geometry" />
        </mxCell>
        <mxCell id="FBbRZ7DXnDDvQ61CtZ3k-3" value="MCU" style="rounded=0;whiteSpace=wrap;html=1;" parent="FBbRZ7DXnDDvQ61CtZ3k-1" vertex="1">
          <mxGeometry x="115" y="20" width="120" height="60" as="geometry" />
        </mxCell>
        <mxCell id="FBbRZ7DXnDDvQ61CtZ3k-5" value="Sensor or Component" style="rounded=0;whiteSpace=wrap;html=1;" parent="FBbRZ7DXnDDvQ61CtZ3k-1" vertex="1">
          <mxGeometry x="270" y="20" width="100" height="60" as="geometry" />
        </mxCell>
        <mxCell id="_B8leQkzivESRJS43U8n-1" value="Sensor/Component" style="text;html=1;align=center;verticalAlign=middle;resizable=0;points=[];autosize=1;strokeColor=none;" parent="FBbRZ7DXnDDvQ61CtZ3k-1" vertex="1">
          <mxGeometry x="240" y="90" width="120" height="20" as="geometry" />
        </mxCell>
      </root>
    </mxGraphModel>
  </diagram>
</mxfile>
